<svg width="24" height="24" viewBox="0 0 24 24" fill="none" xmlns="http://www.w3.org/2000/svg">
<path d="M20.9999 5.00038H2.99991C2.81767 5.00095 2.63904 5.05122 2.48324 5.14576C2.32744 5.24031 2.20037 5.37555 2.11572 5.53694C2.03106 5.69832 1.99203 5.87974 2.00281 6.06167C2.01359 6.24359 2.07379 6.41913 2.17691 6.56938L11.1769 19.5694C11.5499 20.1084 12.4479 20.1084 12.8219 19.5694L21.8219 6.56938C21.9261 6.41944 21.9872 6.24381 21.9985 6.06159C22.0099 5.87936 21.9711 5.69751 21.8864 5.53578C21.8017 5.37405 21.6742 5.23863 21.518 5.14424C21.3617 5.04985 21.1825 5.0001 20.9999 5.00038Z" fill="white"/>
</svg>
