<svg width="16" height="16" viewBox="0 0 16 16" fill="none" xmlns="http://www.w3.org/2000/svg">
<g clip-path="url(#clip0_17_22)">
<path fill-rule="evenodd" clip-rule="evenodd" d="M16 8.00019C16 9.95255 15.2861 11.8375 13.9927 13.3C12.6993 14.7625 10.9157 15.7015 8.978 15.9402L10.88 8.84219C11.0221 8.35701 11.0393 7.84379 10.93 7.35018C10.8185 6.84823 10.5799 6.38336 10.237 6.00019H15.748C15.916 6.65356 16.0007 7.32556 16 8.00019ZM1.64649e-06 8.00019C-8.61649e-05 10.1093 0.83274 12.1332 2.31728 13.6314C3.80182 15.1296 5.81795 15.9809 7.927 16.0002L9.353 10.6792C9.1239 10.7948 8.88092 10.8805 8.63 10.9342C8.0473 11.0594 7.4405 11.0082 6.887 10.7872C6.49383 10.6301 6.13838 10.3915 5.844 10.0872L0.633002 4.87618C0.214585 5.86452 -0.000686895 6.92693 1.64649e-06 8.00019ZM5.004 7.83319L1.108 3.93619C1.86667 2.65077 2.9697 1.60313 4.29246 0.911631C5.61523 0.220134 7.10502 -0.0876646 8.59352 0.0230107C10.082 0.133686 11.5099 0.658424 12.7159 1.53794C13.9218 2.41746 14.8578 3.6167 15.418 5.00019H8.066C7.63608 4.99051 7.20909 5.07339 6.814 5.24319C6.30053 5.46279 5.85883 5.82181 5.53893 6.27956C5.21903 6.73732 5.03372 7.27552 5.004 7.83319ZM8 10.0002C8.53043 10.0002 9.03914 9.78947 9.41422 9.4144C9.78929 9.03933 10 8.53062 10 8.00019C10 7.46975 9.78929 6.96104 9.41422 6.58597C9.03914 6.2109 8.53043 6.00019 8 6.00019C7.46957 6.00019 6.96086 6.2109 6.58579 6.58597C6.21072 6.96104 6 7.46975 6 8.00019C6 8.53062 6.21072 9.03933 6.58579 9.4144C6.96086 9.78947 7.46957 10.0002 8 10.0002Z" fill="white"/>
</g>
<defs>
<clipPath id="clip0_17_22">
<rect width="16" height="16" fill="white"/>
</clipPath>
</defs>
</svg>
