<svg width="24" height="24" viewBox="0 0 24 24" fill="none" xmlns="http://www.w3.org/2000/svg">
<path d="M7.82794 19.0002C7.43384 19.0012 7.04346 18.924 6.67939 18.7731C6.31532 18.6223 5.98479 18.4007 5.70694 18.1212L0.585938 13.0002L5.70694 7.87918C6.83994 6.74518 8.81894 6.74518 9.94994 7.88018C10.5119 8.44286 10.8275 9.20564 10.8273 10.0009C10.8271 10.7961 10.5112 11.5588 9.94894 12.1212L9.07094 13.0002L9.94894 13.8792C10.3674 14.2991 10.6521 14.8335 10.7673 15.4151C10.8825 15.9966 10.8228 16.5992 10.596 17.1469C10.3692 17.6946 9.98522 18.1629 9.49261 18.4927C9 18.8225 8.42076 18.9991 7.82794 19.0002ZM3.41394 13.0002L7.12094 16.7072C7.50094 17.0862 8.15994 17.0842 8.53394 16.7082C8.62698 16.6154 8.70082 16.5051 8.75123 16.3838C8.80164 16.2624 8.82763 16.1323 8.82772 16.0009C8.82782 15.8695 8.80201 15.7393 8.75177 15.6179C8.70153 15.4965 8.62785 15.3861 8.53494 15.2932L6.24294 13.0002L8.53494 10.7072C8.72241 10.5197 8.82772 10.2653 8.82772 10.0002C8.82772 9.73502 8.72241 9.48071 8.53494 9.29318C8.34457 9.11115 8.09133 9.00956 7.82794 9.00956C7.56455 9.00956 7.3113 9.11115 7.12094 9.29318L3.41394 13.0002ZM16.1719 19.0002C15.5791 18.9991 14.9999 18.8225 14.5073 18.4927C14.0147 18.1629 13.6307 17.6946 13.4039 17.1469C13.177 16.5992 13.1174 15.9966 13.2326 15.4151C13.3477 14.8335 13.6325 14.2991 14.0509 13.8792L14.9289 13.0002L14.0509 12.1212C13.4885 11.5586 13.1726 10.7957 13.1726 10.0002C13.1726 9.20469 13.4885 8.44177 14.0509 7.87918C15.1799 6.74618 17.1599 6.74518 18.2929 7.87918L23.4139 13.0002L18.2929 18.1212C18.0151 18.4007 17.6846 18.6223 17.3205 18.7731C16.9564 18.924 16.566 19.0012 16.1719 19.0002ZM16.1709 9.00018C15.9735 9.0009 15.7807 9.05999 15.6167 9.17003C15.4528 9.28007 15.325 9.43614 15.2495 9.6186C15.1741 9.80107 15.1543 10.0018 15.1926 10.1955C15.2309 10.3892 15.3257 10.5672 15.4649 10.7072L17.7569 13.0002L15.4649 15.2932C15.2775 15.4807 15.1722 15.735 15.1722 16.0002C15.1722 16.2653 15.2775 16.5197 15.4649 16.7072C15.655 16.8899 15.9083 16.992 16.1719 16.992C16.4355 16.992 16.6889 16.8899 16.8789 16.7072L20.5859 13.0002L16.8789 9.29318C16.786 9.2002 16.6756 9.12646 16.5541 9.07618C16.4326 9.02591 16.3024 9.00008 16.1709 9.00018Z" fill="white"/>
</svg>
