<svg width="24" height="24" viewBox="0 0 24 24" fill="none" xmlns="http://www.w3.org/2000/svg">
<path d="M15.844 3.34402L14.416 4.12502L15.844 4.90602L16.625 6.33402L17.406 4.90602L18.834 4.12502L17.406 3.34402L16.625 1.91602L15.844 3.34402ZM10.412 4.15802C9.10231 4.42376 7.88006 5.01336 6.85685 5.87297C5.83364 6.73259 5.04207 7.83484 4.55443 9.07907C4.06679 10.3233 3.89861 11.6699 4.06525 12.9958C4.23189 14.3218 4.72804 15.5848 5.5084 16.6697C6.28875 17.7546 7.32845 18.6267 8.53255 19.2064C9.73664 19.7861 11.0668 20.0549 12.4015 19.9883C13.7362 19.9217 15.033 19.5218 16.1734 18.8251C17.3138 18.1284 18.2615 17.1572 18.93 16C16.5552 15.9815 14.284 15.0252 12.6112 13.3394C10.9385 11.6535 9.99993 9.37489 10 7.00002C10 6.02002 10.131 5.06302 10.412 4.15802ZM2 12C2 6.47702 6.477 2.00002 12 2.00002H13.734L12.866 3.50002C12.287 4.50002 12 5.69002 12 7.00002C11.9998 8.03363 12.2286 9.05446 12.6698 9.98917C13.1111 10.9239 13.7538 11.7493 14.5519 12.4061C15.35 13.0629 16.2837 13.5348 17.2858 13.7879C18.288 14.041 19.3337 14.0691 20.348 13.87L22.03 13.543L21.487 15.169C20.162 19.137 16.417 22 12 22C6.477 22 2 17.523 2 12ZM20.5 6.41602L21.414 8.08602L23.084 9.00002L21.414 9.91402L20.5 11.584L19.586 9.91402L17.916 9.00002L19.586 8.08602L20.5 6.41602Z" fill="white"/>
</svg>
