<svg width="23" height="23" viewBox="0 0 23 23" fill="none" xmlns="http://www.w3.org/2000/svg">
<path d="M18.6875 3.59375H4.3125C3.74063 3.59375 3.19218 3.82093 2.7878 4.2253C2.38343 4.62968 2.15625 5.17813 2.15625 5.75V15.8125C2.15625 16.3844 2.38343 16.9328 2.7878 17.3372C3.19218 17.7416 3.74063 17.9688 4.3125 17.9688H10.7812V19.4062H8.625C8.43438 19.4062 8.25156 19.482 8.11677 19.6168C7.98198 19.7516 7.90625 19.9344 7.90625 20.125C7.90625 20.3156 7.98198 20.4984 8.11677 20.6332C8.25156 20.768 8.43438 20.8438 8.625 20.8438H14.375C14.5656 20.8438 14.7484 20.768 14.8832 20.6332C15.018 20.4984 15.0938 20.3156 15.0938 20.125C15.0938 19.9344 15.018 19.7516 14.8832 19.6168C14.7484 19.482 14.5656 19.4062 14.375 19.4062H12.2188V17.9688H18.6875C19.2594 17.9687 19.8078 17.7416 20.2122 17.3372C20.6166 16.9328 20.8437 16.3844 20.8438 15.8125V5.75C20.8437 5.17813 20.6166 4.62968 20.2122 4.2253C19.8078 3.82093 19.2594 3.59375 18.6875 3.59375ZM4.3125 5.03125H18.6875C18.8781 5.03125 19.0609 5.10698 19.1957 5.24177C19.3305 5.37656 19.4062 5.55938 19.4062 5.75V12.9375H3.59375V5.75C3.59375 5.55938 3.66948 5.37656 3.80427 5.24177C3.93906 5.10698 4.12188 5.03125 4.3125 5.03125ZM18.6875 16.5312H4.3125C4.12188 16.5312 3.93906 16.4555 3.80427 16.3207C3.66948 16.1859 3.59375 16.0031 3.59375 15.8125V14.375H19.4062V15.8125C19.4062 16.0031 19.3305 16.1859 19.1957 16.3207C19.0609 16.4555 18.8781 16.5312 18.6875 16.5312Z" fill="white"/>
</svg>
