<svg width="34" height="34" viewBox="0 0 34 34" fill="none" xmlns="http://www.w3.org/2000/svg">
<path d="M1.41675 28.3337V24.367C1.41675 23.5643 1.62358 22.8266 2.03725 22.1542C2.45091 21.4818 2.99964 20.968 3.68341 20.6129C5.1473 19.8809 6.6348 19.3322 8.14591 18.9667C9.65703 18.6012 11.1917 18.418 12.7501 18.417C14.3084 18.4161 15.8431 18.5993 17.3542 18.9667C18.8654 19.3341 20.3529 19.8828 21.8167 20.6129C22.5015 20.967 23.0507 21.4808 23.4643 22.1542C23.878 22.8276 24.0844 23.5652 24.0834 24.367V28.3337H1.41675ZM26.9167 28.3337V24.0837C26.9167 23.0448 26.6277 22.047 26.0497 21.0903C25.4717 20.1336 24.651 19.3133 23.5876 18.6295C24.7917 18.7712 25.9251 19.0134 26.9876 19.3563C28.0501 19.6991 29.0417 20.118 29.9626 20.6129C30.8126 21.0851 31.4619 21.6102 31.9105 22.1882C32.3591 22.7662 32.5834 23.398 32.5834 24.0837V28.3337H26.9167ZM12.7501 17.0004C11.1917 17.0004 9.85772 16.4455 8.748 15.3358C7.63828 14.2261 7.08341 12.892 7.08341 11.3337C7.08341 9.77536 7.63828 8.44133 8.748 7.33161C9.85772 6.22189 11.1917 5.66703 12.7501 5.66703C14.3084 5.66703 15.6424 6.22189 16.7522 7.33161C17.8619 8.44133 18.4167 9.77536 18.4167 11.3337C18.4167 12.892 17.8619 14.2261 16.7522 15.3358C15.6424 16.4455 14.3084 17.0004 12.7501 17.0004ZM26.9167 11.3337C26.9167 12.892 26.3619 14.2261 25.2522 15.3358C24.1424 16.4455 22.8084 17.0004 21.2501 17.0004C20.9904 17.0004 20.6598 16.9711 20.2584 16.9125C19.857 16.854 19.5265 16.7888 19.2667 16.717C19.9042 15.9615 20.3944 15.1233 20.7372 14.2024C21.0801 13.2816 21.251 12.3254 21.2501 11.3337C21.2491 10.342 21.0782 9.38578 20.7372 8.46495C20.3963 7.54411 19.9061 6.70592 19.2667 5.95036C19.5973 5.83231 19.9279 5.75533 20.2584 5.71945C20.589 5.68356 20.9195 5.66608 21.2501 5.66703C22.8084 5.66703 24.1424 6.22189 25.2522 7.33161C26.3619 8.44133 26.9167 9.77536 26.9167 11.3337Z" fill="white"/>
</svg>
