<svg width="136" height="136" viewBox="0 0 136 136" fill="none" xmlns="http://www.w3.org/2000/svg">
<g clip-path="url(#clip0_17_28)">
<path d="M99.7952 5.23219C99.3967 3.10719 97.9624 1.3275 95.9702 0.504067C93.978 -0.319371 91.6936 -0.080308 89.9139 1.14157L67.9999 16.2291L46.0858 1.115C44.3061 -0.106871 42.0217 -0.345933 40.0296 0.477504C38.0374 1.30094 36.603 3.08063 36.2046 5.20563L31.3967 31.3697L5.23268 36.2041C3.10768 36.6025 1.32799 38.0369 0.504555 40.0291C-0.318882 42.0213 -0.0798197 44.3056 1.14206 46.0853L16.2296 67.9994L1.11549 89.9134C-0.106382 91.6931 -0.345445 93.9775 0.477993 95.9697C1.30143 97.9619 3.08112 99.4228 5.20612 99.7947L31.3702 104.602L36.178 130.767C36.5764 132.892 38.0108 134.671 40.003 135.495C41.9952 136.318 44.2796 136.079 46.0592 134.857L67.9999 119.77L89.9139 134.884C91.6936 136.106 93.978 136.345 95.9702 135.521C97.9624 134.698 99.3967 132.918 99.7952 130.793L104.603 104.629L130.767 99.8212C132.892 99.4228 134.672 97.9884 135.495 95.9963C136.319 94.0041 136.08 91.7197 134.858 89.94L119.77 67.9994L134.884 46.0853C136.106 44.3056 136.345 42.0213 135.522 40.0291C134.698 38.0369 132.919 36.6025 130.794 36.2041L104.63 31.3963L99.7952 5.23219ZM71.6124 29.2181L89.0374 17.2119L92.8624 38.0103C93.3405 40.6134 95.3858 42.6588 97.9889 43.1369L118.787 46.9619L106.781 64.3869C105.267 66.565 105.267 69.4338 106.781 71.6119L118.787 89.0369L97.9889 92.8619C95.3858 93.34 93.3405 95.3853 92.8624 97.9884L89.0374 118.787L71.6124 106.781C69.4342 105.267 66.5655 105.267 64.3874 106.781L46.9624 118.787L43.1374 97.9884C42.6592 95.3853 40.6139 93.34 38.0108 92.8619L17.2124 89.0369L29.2186 71.6119C30.7327 69.4338 30.7327 66.565 29.2186 64.3869L17.2124 46.9619L38.0108 43.1369C40.6139 42.6588 42.6592 40.6134 43.1374 38.0103L46.9624 17.2119L64.3874 29.2181C66.5655 30.7322 69.4342 30.7322 71.6124 29.2181ZM67.9999 97.7494C75.8901 97.7494 83.4571 94.615 89.0363 89.0358C94.6155 83.4566 97.7499 75.8896 97.7499 67.9994C97.7499 60.1092 94.6155 52.5422 89.0363 46.963C83.4571 41.3837 75.8901 38.2494 67.9999 38.2494C60.1097 38.2494 52.5427 41.3837 46.9634 46.963C41.3842 52.5422 38.2499 60.1092 38.2499 67.9994C38.2499 75.8896 41.3842 83.4566 46.9634 89.0358C52.5427 94.615 60.1097 97.7494 67.9999 97.7494ZM50.9999 67.9994C50.9999 63.4907 52.7909 59.1667 55.9791 55.9786C59.1672 52.7904 63.4912 50.9994 67.9999 50.9994C72.5085 50.9994 76.8326 52.7904 80.0207 55.9786C83.2088 59.1667 84.9999 63.4907 84.9999 67.9994C84.9999 72.5081 83.2088 76.8321 80.0207 80.0202C76.8326 83.2083 72.5085 84.9994 67.9999 84.9994C63.4912 84.9994 59.1672 83.2083 55.9791 80.0202C52.7909 76.8321 50.9999 72.5081 50.9999 67.9994Z" fill="white"/>
</g>
<defs>
<clipPath id="clip0_17_28">
<rect width="136" height="136" fill="white"/>
</clipPath>
</defs>
</svg>
