<svg width="24" height="24" viewBox="0 0 24 24" fill="none" xmlns="http://www.w3.org/2000/svg">
<path d="M12 18.5C12.4167 18.5 12.771 18.3543 13.063 18.063C13.355 17.7717 13.5007 17.4173 13.5 17H10.5C10.5 17.4167 10.646 17.771 10.938 18.063C11.23 18.355 11.584 18.5007 12 18.5ZM7 16H17V14H16V11.4C16 10.3833 15.7373 9.45433 15.212 8.613C14.6867 7.77167 13.9493 7.234 13 7V5.5H11V7C10.05 7.23333 9.31267 7.771 8.788 8.613C8.26333 9.455 8.00067 10.384 8 11.4V14H7V16ZM12 22C10.6167 22 9.31667 21.7373 8.1 21.212C6.88334 20.6867 5.825 19.9743 4.925 19.075C4.025 18.1757 3.31267 17.1173 2.788 15.9C2.26333 14.6827 2.00067 13.3827 2 12C1.99933 10.6173 2.262 9.31733 2.788 8.1C3.314 6.88267 4.02633 5.82433 4.925 4.925C5.82367 4.02567 6.882 3.31333 8.1 2.788C9.318 2.26267 10.618 2 12 2C13.382 2 14.682 2.26267 15.9 2.788C17.118 3.31333 18.1763 4.02567 19.075 4.925C19.9737 5.82433 20.6863 6.88267 21.213 8.1C21.7397 9.31733 22.002 10.6173 22 12C21.998 13.3827 21.7353 14.6827 21.212 15.9C20.6887 17.1173 19.9763 18.1757 19.075 19.075C18.1737 19.9743 17.1153 20.687 15.9 21.213C14.6847 21.739 13.3847 22.0013 12 22Z" fill="white"/>
</svg>
